HIERARCHY
ROOT joint_Root
{
	OFFSET 0.0 0.0 0.0
	CHANNELS 6 Xposition Yposition Zposition Zrotation Xrotation Yrotation 
	JOINT Hips
	{
		OFFSET 4.5925 91.4895 -427.239
		CHANNELS 6 Xposition Yposition Zposition Zrotation Xrotation Yrotation 
		JOINT Spine
		{
			OFFSET 15.7357 0.0 0.0
			CHANNELS 6 Xposition Yposition Zposition Zrotation Xrotation Yrotation 
			JOINT Chest
			{
				OFFSET 8.98455 -0.406207 0.0
				CHANNELS 6 Xposition Yposition Zposition Zrotation Xrotation Yrotation 
				JOINT Neck
				{
					OFFSET 16.3773 0.0 0.0
					CHANNELS 6 Xposition Yposition Zposition Zrotation Xrotation Yrotation 
					JOINT Head
					{
						OFFSET 6.45672 0.0 0.0
						CHANNELS 6 Xposition Yposition Zposition Zrotation Xrotation Yrotation 
						End Site
						{
							OFFSET 0.0 0.0 0.0
						}
					}
				}
				JOINT Shoulder_L
				{
					OFFSET 12.9942 -0.242716 4.98039
					CHANNELS 6 Xposition Yposition Zposition Zrotation Xrotation Yrotation 
					JOINT UpperArm_L
					{
						OFFSET 5.34809 0.0 0.0
						CHANNELS 6 Xposition Yposition Zposition Zrotation Xrotation Yrotation 
						JOINT LowerArm_L
						{
							OFFSET 24.3286 1.87007e-05 0.0
							CHANNELS 6 Xposition Yposition Zposition Zrotation Xrotation Yrotation 
							JOINT Hand_L
							{
								OFFSET 22.2916 0.0 0.0
								CHANNELS 6 Xposition Yposition Zposition Zrotation Xrotation Yrotation 
								End Site
								{
									OFFSET 0.0 0.0 0.0
								}
							}
						}
					}
				}
				JOINT Shoulder_R
				{
					OFFSET 12.9945 -0.242716 -4.98039
					CHANNELS 6 Xposition Yposition Zposition Zrotation Xrotation Yrotation 
					JOINT UpperArm_R
					{
						OFFSET -5.34813 0.0 0.0
						CHANNELS 6 Xposition Yposition Zposition Zrotation Xrotation Yrotation 
						JOINT LowerArm_R
						{
							OFFSET -24.3289 0.000322201 0.0
							CHANNELS 6 Xposition Yposition Zposition Zrotation Xrotation Yrotation 
							JOINT Hand_R
							{
								OFFSET -22.2915 -0.000108084 0.0
								CHANNELS 6 Xposition Yposition Zposition Zrotation Xrotation Yrotation 
								End Site
								{
									OFFSET 0.0 0.0 0.0
								}
							}
						}
					}
				}
			}
		}
		JOINT UpperLeg_L
		{
			OFFSET -2.19248 -6.46944 0.0
			CHANNELS 6 Xposition Yposition Zposition Zrotation Xrotation Yrotation 
			JOINT LowerLeg_L
			{
				OFFSET 39.0811 0.0 -1.23785e-05
				CHANNELS 6 Xposition Yposition Zposition Zrotation Xrotation Yrotation 
				JOINT Foot_L
				{
					OFFSET 40.9854 0.0 -1.26872e-05
					CHANNELS 6 Xposition Yposition Zposition Zrotation Xrotation Yrotation 
					JOINT Toes_L
					{
						OFFSET 11.7543 0.0 0.0
						CHANNELS 6 Xposition Yposition Zposition Zrotation Xrotation Yrotation 
						End Site
						{
							OFFSET 0.0 0.0 0.0
						}
					}
				}
			}
		}
		JOINT UpperLeg_R
		{
			OFFSET -2.19251 6.46944 0.0
			CHANNELS 6 Xposition Yposition Zposition Zrotation Xrotation Yrotation 
			JOINT LowerLeg_R
			{
				OFFSET -39.0811 -0.00228153 -0.0401928
				CHANNELS 6 Xposition Yposition Zposition Zrotation Xrotation Yrotation 
				JOINT Foot_R
				{
					OFFSET -40.9854 0.0 0.0
					CHANNELS 6 Xposition Yposition Zposition Zrotation Xrotation Yrotation 
					JOINT Toes_R
					{
						OFFSET -11.7543 0.0 0.0
						CHANNELS 6 Xposition Yposition Zposition Zrotation Xrotation Yrotation 
						End Site
						{
							OFFSET 0.0 0.0 0.0
						}
					}
				}
			}
		}
	}
}
MOTION
Frames:	6
Frame Time:	0.0333333
0.000000 0.000000 0.000000 0.000000 0.000000 -0.000000 -5.329560 91.508200 -2.068000 89.358500 16.786700 5.274460 15.735700 0.000005 -0.000001 93.580700 85.377800 -98.132500 8.984550 -0.406207 -0.000000 1.509530 0.824992 -9.106440 16.377300 -0.000001 -0.000001 10.338600 -7.880120 7.918410 6.456720 -0.000001 -0.000000 0.322651 -6.622470 -1.088250 12.994200 -0.242716 4.980390 -91.595200 3.934190 -67.908800 5.348090 -0.000007 -0.000001 -63.194900 10.680900 -5.150480 24.328600 0.000019 0.000005 4.960010 13.413900 -20.510700 22.291600 -0.000001 0.000005 16.495100 5.228290 1.999640 12.994500 -0.242716 -4.980390 94.487500 -10.258900 -66.218100 -5.348130 -0.000001 -0.000004 -36.740900 -67.596300 -80.907600 -24.328900 0.000322 -0.000009 -2.256300 -2.221130 -45.457500 -22.291500 -0.000108 -0.000004 18.282200 5.535330 -8.032100 -2.192480 -6.469440 -0.000000 -173.336000 -4.108360 -8.608940 39.081100 -0.000007 -0.000012 -0.128269 0.254434 26.754500 40.985400 -0.000006 -0.000013 -1.097110 16.244100 -63.764900 11.754300 -0.000000 0.000003 -0.000049 -0.000554 -16.599100 -2.192510 6.469440 -0.000001 179.321000 29.380900 178.116000 -39.081100 -0.002282 -0.040193 -0.046719 0.103925 25.706000 -40.985400 0.000008 0.000006 6.526920 4.852450 -69.582500 -11.754300 -0.000006 -0.000006 -0.004403 -0.055571 -18.833800
0.000000 0.000000 0.000000 0.000000 0.000000 -0.000000 -5.094050 91.524200 -2.215420 89.355600 15.946400 5.290840 15.735700 0.000005 -0.000001 92.844700 85.384600 -97.172300 8.984550 -0.406207 -0.000000 1.494540 0.694217 -8.656700 16.377300 -0.000001 -0.000001 10.254800 -7.988700 7.955530 6.456720 -0.000001 -0.000000 0.420119 -6.625390 -0.981212 12.994200 -0.242716 4.980390 -91.610300 3.963970 -67.870700 5.348090 -0.000007 -0.000001 -63.119700 11.456800 -5.479410 24.328600 0.000019 0.000005 5.032870 13.903300 -20.128400 22.291600 -0.000001 0.000005 16.297100 5.201330 2.686070 12.994500 -0.242716 -4.980390 94.444300 -10.179900 -66.261800 -5.348130 -0.000001 -0.000004 -37.382600 -67.339200 -81.041200 -24.328900 0.000322 -0.000009 -2.774100 -2.583900 -47.048100 -22.291500 -0.000108 -0.000004 18.202500 5.524730 -7.565530 -2.192480 -6.469440 -0.000000 -173.528000 -3.960170 -8.511860 39.081100 -0.000007 -0.000012 -0.126074 0.249422 26.815100 40.985400 -0.000006 -0.000013 -1.110470 15.246700 -63.854800 11.754300 -0.000000 0.000003 -0.000051 -0.000575 -16.599900 -2.192510 6.469440 -0.000001 179.269000 28.455600 177.937000 -39.081100 -0.002282 -0.040193 -0.049229 0.108715 25.793700 -40.985400 0.000008 0.000006 6.291060 4.894950 -69.411700 -11.754300 -0.000006 -0.000006 -0.004444 -0.055983 -18.850600
0.000000 0.000000 0.000000 0.000000 0.000000 -0.000000 -4.826390 91.536800 -2.339660 89.347400 14.823600 5.306460 15.735700 0.000005 -0.000001 92.478500 85.389700 -96.561900 8.984550 -0.406207 -0.000000 1.481370 0.622063 -8.167610 16.377300 -0.000001 -0.000001 10.102600 -8.193190 7.905950 6.456720 -0.000001 -0.000000 0.543845 -6.882510 -0.830007 12.994200 -0.242716 4.980390 -91.621100 3.995720 -67.895500 5.348090 -0.000007 -0.000001 -63.055500 12.767900 -5.793090 24.328600 0.000019 0.000005 5.218260 14.752200 -19.730900 22.291600 -0.000001 0.000005 15.905000 5.174740 3.345200 12.994500 -0.242716 -4.980390 94.266400 -9.899760 -66.543200 -5.348130 -0.000001 -0.000004 -37.910900 -66.670300 -80.270400 -24.328900 0.000322 -0.000009 -4.211360 -3.523650 -50.134600 -22.291500 -0.000108 -0.000004 18.276300 5.516800 -7.225980 -2.192480 -6.469440 -0.000000 -173.714000 -3.891200 -8.364380 39.081100 -0.000007 -0.000012 -0.128472 0.253226 26.900700 40.985400 -0.000006 -0.000013 -1.145750 14.067800 -64.003100 11.754300 -0.000000 0.000003 -0.000047 -0.000539 -16.598500 -2.192510 6.469440 -0.000001 179.162000 27.508100 177.780000 -39.081100 -0.002282 -0.040193 -0.056143 0.122556 25.878600 -40.985400 0.000008 0.000006 5.940260 5.198360 -69.237800 -11.754300 -0.000006 -0.000006 -0.004518 -0.056723 -18.880700
0.000000 0.000000 0.000000 0.000000 0.000000 -0.000000 -4.529370 91.552400 -2.431730 89.358400 13.463200 5.324990 15.735700 0.000005 -0.000001 92.482300 85.416300 -96.318900 8.984550 -0.406207 -0.000000 1.424810 0.608794 -7.674290 16.377300 -0.000001 -0.000001 9.952450 -8.393790 7.842210 6.456720 -0.000001 -0.000000 0.731014 -7.301430 -0.683757 12.994200 -0.242716 4.980390 -91.643100 4.042700 -67.859000 5.348090 -0.000007 -0.000001 -62.970700 14.478900 -6.131600 24.328600 0.000019 0.000005 5.414540 15.752000 -19.246500 22.291600 -0.000001 0.000005 15.227100 5.157060 3.774590 12.994500 -0.242716 -4.980390 93.998900 -9.444740 -66.925300 -5.348130 -0.000001 -0.000004 -38.404400 -65.228600 -78.475900 -24.328900 0.000322 -0.000009 -6.399950 -4.506310 -54.978700 -22.291500 -0.000108 -0.000004 18.728800 5.513330 -7.080560 -2.192480 -6.469440 -0.000000 -173.913000 -4.195840 -8.148120 39.081100 -0.000007 -0.000012 -0.127188 0.249973 26.967500 40.985400 -0.000006 -0.000013 -1.133380 12.976600 -64.167200 11.754300 -0.000000 0.000003 -0.000052 -0.000590 -16.600400 -2.192510 6.469440 -0.000001 178.988000 26.558900 177.655000 -39.081100 -0.002282 -0.040193 -0.062481 0.135179 25.952100 -40.985400 0.000008 0.000006 5.637330 5.737850 -69.077300 -11.754300 -0.000006 -0.000006 -0.004550 -0.057045 -18.893900
0.000000 0.000000 0.000000 0.000000 0.000000 -0.000000 -4.198740 91.565700 -2.502630 89.366200 11.789000 5.374930 15.735700 0.000005 -0.000001 92.792300 85.441700 -96.388600 8.984550 -0.406207 -0.000000 1.370270 0.644324 -7.194260 16.377300 -0.000001 -0.000001 9.690900 -8.570220 7.700830 6.456720 -0.000001 -0.000000 1.003930 -7.718370 -0.460209 12.994200 -0.242716 4.980390 -91.695600 4.165020 -67.825500 5.348090 -0.000007 -0.000001 -62.838300 16.302100 -6.393020 24.328600 0.000019 0.000005 5.449940 16.356900 -18.715200 22.291600 -0.000001 0.000005 14.616700 5.149260 3.961230 12.994500 -0.242716 -4.980390 93.544900 -8.681740 -67.686400 -5.348130 -0.000001 -0.000004 -37.995200 -63.113000 -74.796500 -24.328900 0.000322 -0.000009 -7.918530 -4.308650 -61.620100 -22.291500 -0.000108 -0.000004 19.775000 5.510580 -6.966750 -2.192480 -6.469440 -0.000000 -174.077000 -4.778420 -7.825530 39.081100 -0.000007 -0.000012 -0.131080 0.256875 27.034800 40.985400 -0.000006 -0.000013 -1.114630 11.885800 -64.386100 11.754300 -0.000000 0.000003 -0.000051 -0.000574 -16.599800 -2.192510 6.469440 -0.000001 178.854000 25.298000 177.510000 -39.081100 -0.002282 -0.040193 -0.062912 0.135431 26.057200 -40.985400 0.000008 0.000006 5.446640 6.239470 -68.926000 -11.754300 -0.000006 -0.000006 -0.004459 -0.056129 -18.856500
0.000000 0.000000 0.000000 0.000000 0.000000 -0.000000 -3.853110 91.565700 -2.556610 89.403900 10.021700 5.457160 15.735700 0.000005 -0.000001 92.290700 85.435900 -95.648800 8.984550 -0.406207 -0.000000 1.379880 0.551558 -6.717080 16.377300 -0.000001 -0.000001 9.184100 -8.542630 7.366170 6.456720 -0.000001 -0.000000 1.269180 -7.924880 -0.220039 12.994200 -0.242716 4.980390 -91.783100 4.382390 -67.834400 5.348090 -0.000007 -0.000001 -62.760300 17.878600 -6.345870 24.328600 0.000019 0.000005 5.504130 16.630600 -18.607900 22.291600 -0.000001 0.000005 13.969600 5.142650 4.118220 12.994500 -0.242716 -4.980390 93.020300 -7.694250 -68.491400 -5.348130 -0.000001 -0.000004 -37.698800 -59.944300 -70.229100 -24.328900 0.000322 -0.000009 -8.457700 -3.157090 -69.674900 -22.291500 -0.000108 -0.000004 21.212900 5.509050 -6.902450 -2.192480 -6.469440 -0.000000 -174.281000 -5.342230 -7.455400 39.081100 -0.000007 -0.000012 -0.132470 0.258308 27.150500 40.985400 -0.000006 -0.000013 -1.089860 10.759400 -64.670800 11.754300 -0.000000 0.000003 -0.000056 -0.000622 -16.601700 -2.192510 6.469440 -0.000001 178.656000 23.948200 177.365000 -39.081100 -0.002282 -0.040193 -0.069576 0.147770 26.254100 -40.985400 0.000008 0.000006 5.258580 6.746850 -68.827200 -11.754300 -0.000006 -0.000006 -0.004498 -0.056522 -18.872500
